<?xml version="1.0" standalone="no"?>
<!DOCTYPE svg PUBLIC "-//W3C//DTD SVG 20010904//EN"
 "http://www.w3.org/TR/2001/REC-SVG-20010904/DTD/svg10.dtd">
<svg version="1.0" xmlns="http://www.w3.org/2000/svg"
 width="900.000000pt" height="832.000000pt" viewBox="0 0 900.000000 832.000000"
 preserveAspectRatio="xMidYMid meet">

<g transform="translate(0.000000,832.000000) scale(0.100000,-0.100000)"
fill="#000000" stroke="none">
<path d="M5974 8130 c-214 -43 -623 -123 -909 -179 -286 -57 -630 -125 -765
-151 -135 -27 -578 -114 -985 -195 -407 -80 -792 -157 -855 -170 -63 -14 -124
-27 -135 -29 -11 -2 -23 -4 -26 -5 -6 -1 -13 -1060 -24 -3366 -3 -594 -7
-1199 -10 -1345 -3 -146 -6 -679 -7 -1185 l-1 -920 44 -7 c24 -5 575 -73 1224
-153 1668 -206 2016 -249 2479 -306 443 -55 459 -55 473 -2 3 14 -4 1828 -15
4030 -23 4355 -17 4044 -75 4055 -13 3 -199 -30 -413 -72z m-386 -942 c14 -14
16 -98 2 -98 -5 0 -10 20 -10 45 0 25 -4 45 -8 45 -18 0 -32 -26 -32 -62 0
-21 -4 -38 -10 -38 -5 0 -10 20 -10 45 0 25 -4 45 -8 45 -18 0 -32 -26 -32
-62 0 -21 -4 -38 -10 -38 -5 0 -10 25 -10 56 0 36 4 53 10 49 6 -4 17 -1 25 5
11 9 18 10 29 1 10 -9 16 -8 26 4 15 18 22 19 38 3z m-318 -17 c0 -5 -10 -11
-22 -13 -34 -5 -37 -38 -4 -38 14 0 26 -4 26 -10 0 -5 -11 -10 -24 -10 -21 0
-25 -5 -29 -37 -2 -22 -4 -7 -5 34 -2 61 1 72 16 76 30 8 42 7 42 -2z m155
-17 c23 -23 15 -63 -17 -87 -27 -20 -28 -20 -48 -2 -26 24 -25 53 2 82 25 27
41 29 63 7z m-106 -20 c-7 -8 -16 -34 -20 -57 -6 -41 -7 -40 -8 16 0 34 3 56
8 52 5 -3 13 0 16 6 4 5 9 8 12 5 3 -3 0 -13 -8 -22z m-312 -20 c2 -6 -10 -8
-31 -6 -26 3 -37 -1 -50 -19 -22 -31 -20 -55 5 -72 25 -18 56 -11 70 15 9 17
8 19 -10 13 -24 -7 -29 10 -5 19 27 10 34 7 34 -17 0 -59 -92 -78 -118 -25
-14 30 -2 74 26 96 19 15 74 12 79 -4z m119 -18 c13 -22 14 -29 2 -53 -23 -49
-88 -39 -88 13 0 27 32 64 55 64 8 0 22 -11 31 -24z m-396 -16 c0 -5 -7 -10
-15 -10 -12 0 -15 -13 -15 -60 0 -33 -4 -60 -10 -60 -5 0 -10 25 -10 55 0 30
-4 55 -10 55 -17 0 -11 18 8 23 31 8 52 7 52 -3z m84 -26 c20 -20 20 -43 0
-72 -27 -39 -74 -22 -74 27 0 27 26 61 46 61 7 0 20 -7 28 -16z m-470 -66 c8
-6 7 -8 -1 -8 -8 0 -14 -17 -15 -47 -1 -48 -1 -48 -5 -8 -3 22 -10 44 -16 48
-9 6 -9 10 1 14 6 2 13 14 13 26 1 21 2 21 6 2 3 -11 10 -23 17 -27z m254 -10
c2 -29 -1 -48 -7 -48 -6 0 -11 17 -11 38 0 21 -3 42 -7 45 -14 14 -33 -17 -34
-57 l-2 -41 -6 42 c-12 73 -35 70 -50 -8 l-9 -44 -1 56 -1 57 36 -2 c20 -1 38
2 41 7 3 4 15 7 26 5 19 -3 22 -11 25 -50z m-163 16 c22 -23 14 -38 -23 -42
-20 -2 -32 -9 -32 -18 0 -16 36 -19 45 -4 3 6 11 10 17 10 6 0 3 -9 -7 -20
-32 -35 -75 -19 -75 27 0 23 31 63 49 63 5 0 17 -7 26 -16z m-301 -13 c9 -14
-6 -22 -20 -10 -27 22 -25 -13 2 -42 24 -25 26 -32 16 -54 -13 -29 -34 -32
-53 -9 -11 13 -9 14 14 9 22 -6 27 -4 27 12 0 11 -9 28 -20 38 -20 18 -26 46
-13 58 9 10 41 9 47 -2z m75 -73 c-25 -71 -45 -101 -35 -53 4 19 1 45 -9 68
-8 21 -11 37 -5 37 5 0 12 -11 16 -25 6 -24 24 -36 24 -16 0 18 21 64 26 58 3
-3 -4 -34 -17 -69z m81 61 c0 -6 -7 -9 -15 -6 -23 10 -28 -11 -5 -23 28 -15
23 -54 -7 -58 -13 -2 -23 1 -23 7 0 6 7 8 15 5 20 -8 19 15 -1 37 -9 10 -14
25 -11 34 7 17 47 21 47 4z m-488 -46 c6 -27 -3 -113 -12 -113 -9 0 -17 72
-12 108 4 26 18 29 24 5z m203 -7 c12 -17 13 -30 6 -49 -10 -25 -43 -43 -60
-32 -5 3 -12 -7 -14 -22 -2 -16 -5 5 -6 45 0 40 3 71 7 68 4 -2 14 -1 22 5 22
13 28 11 45 -15z m-258 -3 c3 -7 -3 -9 -16 -6 -24 6 -30 -21 -7 -30 8 -3 19
-15 25 -26 8 -15 6 -24 -9 -43 -18 -22 -19 -23 -37 -4 -17 18 -17 18 4 12 31
-10 39 12 14 38 -21 22 -28 56 -14 70 10 10 36 3 40 -11z m151 -5 c21 -21 13
-37 -23 -44 -37 -7 -46 -21 -19 -31 11 -4 22 1 30 12 12 16 14 17 14 2 0 -9
-10 -22 -22 -28 -18 -10 -24 -8 -40 11 -38 47 19 119 60 78z m-279 -50 c-12
-29 -24 -61 -26 -70 -3 -10 -9 -18 -14 -18 -12 0 -12 2 11 55 25 59 25 65 -2
65 -19 0 -20 2 -8 10 8 5 25 10 37 10 l23 0 -21 -52z m2076 32 c3 -5 -3 -10
-14 -10 -27 0 -26 -7 2 -30 18 -15 20 -22 11 -37 -12 -20 -54 -31 -54 -14 0 6
9 11 20 11 23 0 27 18 6 26 -8 3 -17 13 -20 21 -11 29 33 59 49 33z m-79 -60
c1 -43 0 -46 -3 -12 -7 76 -53 67 -53 -11 0 -23 -4 -36 -10 -32 -5 3 -10 24
-10 46 0 33 -3 40 -17 37 -13 -2 -19 -15 -21 -46 -4 -58 -22 -53 -22 7 0 47 2
50 30 56 16 4 33 4 38 1 4 -2 14 0 22 5 32 20 45 6 46 -51z m-156 -14 c0 -54
0 -54 -36 -60 -43 -9 -64 6 -64 44 0 31 24 56 60 63 14 2 28 5 33 6 4 0 7 -23
7 -53z m-1960 25 c13 -25 13 -81 0 -81 -5 0 -10 18 -10 41 0 33 -3 40 -17 37
-13 -2 -19 -15 -21 -46 -2 -23 -8 -42 -13 -42 -6 0 -9 20 -6 48 2 26 9 47 14
47 6 0 15 3 19 8 12 12 23 8 34 -12z m1658 -3 c16 -16 15 -80 -1 -102 -7 -9
-29 -21 -50 -25 l-37 -9 0 74 0 74 38 0 c21 0 43 -5 50 -12z m166 -4 c26 -26
19 -41 -24 -48 -29 -5 -38 -10 -34 -21 8 -19 28 -19 48 0 17 17 26 19 26 5 0
-5 -11 -17 -24 -25 -19 -13 -29 -14 -45 -5 -30 15 -29 73 1 94 28 20 33 20 52
0z m-1914 -13 c14 -28 13 -31 -12 -31 -30 0 -52 -15 -44 -29 10 -15 22 -14 40
5 14 14 16 14 16 0 0 -17 -42 -32 -59 -21 -15 9 -14 68 1 83 18 18 46 14 58
-7z m-94 -16 c-3 -13 -11 -37 -17 -52 l-11 -28 -19 44 c-11 24 -17 46 -14 49
2 3 11 -10 19 -28 l13 -33 13 36 c13 41 26 50 16 12z m1912 14 c-13 -7 -18
-23 -18 -54 0 -25 -4 -45 -10 -45 -5 0 -10 25 -10 55 0 53 1 55 28 55 23 -1
24 -2 10 -11z m-2133 -29 c0 -16 -8 -28 -22 -35 -16 -7 -23 -18 -23 -37 0 -16
-4 -28 -10 -28 -11 0 -14 113 -3 124 4 4 19 6 33 4 19 -2 25 -9 25 -28z m138
-1 c14 -23 1 -67 -24 -74 -42 -14 -67 46 -33 80 19 19 43 16 57 -6z m-91 -1
c-7 -7 -12 -29 -12 -50 0 -21 -4 -38 -10 -38 -15 0 -12 87 3 93 22 10 31 7 19
-5z m1856 -2 c-12 -9 -18 -27 -18 -55 0 -22 -4 -41 -10 -41 -5 0 -10 22 -10
49 0 39 4 51 18 54 32 8 37 6 20 -7z m-2045 -47 c10 -28 16 -53 13 -56 -3 -3
-8 2 -12 11 -10 25 -43 19 -55 -10 -5 -15 -12 -25 -14 -22 -7 6 35 128 44 128
3 0 14 -23 24 -51z m1767 11 c-11 -21 -20 -53 -20 -70 0 -16 -4 -30 -9 -30 -4
0 -6 11 -4 24 3 13 -5 42 -16 65 -22 41 -12 60 10 19 l12 -22 14 27 c7 15 18
27 24 27 5 0 0 -18 -11 -40z m209 -56 c-15 -19 -55 -18 -63 2 -10 25 -7 84 4
84 6 0 10 -18 10 -39 0 -22 5 -43 12 -47 16 -10 38 24 40 65 1 33 2 32 5 -7 3
-25 -1 -50 -8 -58z m-339 77 c0 -6 -5 -13 -11 -17 -8 -4 -7 -9 2 -16 9 -6 10
-11 4 -14 -6 -2 -9 -22 -7 -43 2 -21 -1 -42 -7 -45 -14 -9 -19 94 -6 132 5 14
25 17 25 3z m238 -13 c17 -17 15 -58 -5 -80 -30 -34 -73 -16 -73 31 0 46 49
78 78 49z m-316 -15 c27 -24 24 -78 -7 -108 -29 -30 -49 -31 -75 -5 -28 28
-26 75 5 105 28 29 51 32 77 8z m-172 -62 c13 -25 13 -81 0 -81 -5 0 -10 18
-10 40 0 28 -4 40 -14 40 -19 0 -28 -15 -37 -60 -6 -32 -7 -30 -8 18 -1 31 3
51 8 47 5 -3 12 -1 16 5 10 16 33 12 45 -9z m-92 -48 c-2 -36 -7 -47 -21 -49
-11 -1 -21 -5 -24 -8 -13 -12 -43 16 -43 40 0 44 17 64 56 64 l35 0 -3 -47z
m-369 -30 c-16 -77 -23 -82 -39 -31 l-13 43 -17 -50 -17 -49 -12 49 c-6 28
-14 58 -17 68 -3 9 -1 17 4 17 5 0 13 -19 19 -42 l9 -43 15 50 15 50 15 -45
15 -44 13 48 c17 68 26 50 10 -21z m249 55 c14 -14 16 -88 2 -88 -5 0 -10 18
-10 40 0 63 -27 50 -41 -20 l-7 -35 -1 43 c-1 36 -4 43 -18 40 -13 -2 -19 -15
-21 -46 -4 -55 -22 -45 -22 13 0 37 3 44 24 49 14 3 31 3 39 0 8 -3 18 -1 22
5 8 14 18 14 33 -1z m-136 -43 c9 -19 8 -29 -6 -50 -38 -58 -99 -7 -66 56 15
28 58 25 72 -6z m-442 -20 c0 -9 9 -14 23 -12 20 2 22 -2 23 -48 1 -46 1 -47
-3 -7 -3 34 -8 43 -21 40 -12 -2 -18 -15 -20 -46 -5 -69 -22 -48 -22 29 0 44
4 68 10 64 6 -3 10 -13 10 -20z m-30 5 c0 -5 -4 -10 -10 -10 -5 0 -10 -25 -10
-55 0 -30 -4 -55 -10 -55 -5 0 -10 25 -10 56 0 34 -4 53 -10 49 -5 -3 -10 -2
-10 4 0 5 6 12 13 14 21 9 47 7 47 -3z m178 -27 c2 -17 -2 -23 -15 -23 -31 0
-50 -17 -36 -31 10 -10 17 -8 34 7 15 13 20 14 17 5 -7 -25 -36 -37 -55 -25
-25 15 -28 52 -7 75 23 26 58 21 62 -8z m-390 -7 c-12 -8 -18 -31 -21 -72 l-3
-59 -2 63 c-1 39 -6 61 -12 57 -5 -3 -10 -2 -10 4 0 9 21 18 50 20 12 0 12 -2
-2 -13z m86 -22 c22 -21 20 -50 -4 -74 -26 -26 -36 -25 -55 4 -14 20 -14 29
-4 48 21 40 39 46 63 22z m-284 -59 c0 -36 -3 -65 -7 -65 -5 0 -6 29 -5 65 2
36 6 65 8 65 2 0 4 -29 4 -65z m78 33 c20 -20 13 -38 -18 -44 -16 -4 -30 -11
-30 -16 0 -15 30 -21 45 -8 13 11 14 10 9 -3 -10 -27 -37 -30 -57 -6 -19 24
-15 56 11 77 20 15 25 15 40 0z m-288 -8 c0 -5 -4 -10 -10 -10 -5 0 -10 5 -10
10 0 6 5 10 10 10 6 0 10 -4 10 -10z m-42 -20 c3 -7 0 -10 -7 -6 -26 16 -30
-7 -6 -35 20 -24 23 -34 15 -50 -13 -23 -50 -26 -50 -3 0 13 3 14 15 4 26 -21
31 17 6 44 -24 26 -26 37 -9 54 14 14 30 11 36 -8z m220 -37 c-5 -61 -25 -89
-57 -78 -30 9 -26 24 5 22 15 -1 28 3 31 8 2 6 -9 11 -24 10 -24 0 -28 4 -31
31 -4 38 17 62 54 62 26 0 26 -2 22 -55z m-102 -13 l2 -45 -7 40 c-9 56 -35
55 -39 -2 -4 -56 -22 -56 -22 0 0 52 2 54 38 53 25 -1 27 -4 28 -46z m-76 -5
c0 -25 -4 -45 -10 -45 -5 0 -10 20 -10 45 0 25 5 45 10 45 6 0 10 -20 10 -45z
m2236 -2644 c48 -22 101 -82 114 -131 17 -62 12 -141 -14 -195 -74 -159 -267
-167 -350 -15 -66 122 -18 288 99 341 51 24 99 24 151 0z m284 -68 l0 -87 83
88 c68 73 86 88 107 84 24 -3 21 -7 -45 -78 -39 -41 -81 -87 -94 -102 l-23
-27 101 -119 c55 -66 101 -122 101 -126 0 -3 -11 -6 -24 -6 -17 0 -43 24 -101
93 -43 50 -85 99 -92 107 -12 13 -14 0 -11 -90 3 -102 2 -105 -19 -108 l-23
-3 0 230 c0 224 1 231 20 231 18 0 20 -7 20 -87z m-759 42 c104 -67 127 -240
45 -348 -39 -52 -87 -77 -149 -77 -109 0 -187 90 -187 216 0 78 17 128 59 175
64 71 155 84 232 34z m-438 -26 c24 -30 23 -109 -2 -135 -18 -19 -18 -20 12
-44 24 -21 30 -36 35 -78 8 -88 -32 -127 -141 -137 l-67 -6 0 215 0 215 38 3
c55 5 105 -8 125 -33z m-431 -62 l41 -82 43 88 c33 65 49 87 64 87 11 0 20 -2
20 -5 0 -3 -25 -55 -55 -115 l-55 -110 0 -100 c0 -93 -1 -100 -20 -100 -19 0
-20 7 -20 105 l0 105 -51 102 c-38 76 -47 103 -38 109 20 12 26 4 71 -84z
m-234 -117 c39 -102 74 -193 77 -202 5 -14 2 -18 -13 -18 -16 0 -26 15 -47 70
l-27 71 -71 -3 -72 -3 -25 -67 c-18 -48 -30 -68 -42 -68 -10 0 -18 3 -18 8 0
21 155 411 161 405 4 -5 39 -91 77 -193z m-428 5 l0 -185 65 0 c58 0 65 -2 65
-20 0 -18 -7 -20 -80 -20 l-80 0 0 205 c0 176 2 205 15 205 13 0 15 -27 15
-185z m-159 149 c19 -21 24 -36 24 -81 0 -71 -27 -97 -109 -107 l-56 -7 0 -90
c0 -72 -3 -89 -15 -89 -13 0 -15 29 -15 200 l0 200 73 0 c66 0 76 -3 98 -26z
m573 -684 c100 -48 139 -214 73 -312 -65 -96 -178 -105 -250 -19 -37 45 -50
94 -44 169 6 76 42 137 97 164 45 23 74 23 124 -2z m-284 -10 c0 -18 -7 -20
-65 -20 l-65 0 0 -60 0 -60 65 0 c58 0 65 -2 65 -20 0 -18 -7 -20 -65 -20
l-65 0 0 -90 c0 -73 -3 -90 -15 -90 -13 0 -15 28 -15 190 l0 190 80 0 c73 0
80 -2 80 -20z m635 4 c23 -9 45 -58 45 -102 0 -50 -30 -89 -75 -98 l-33 -6 54
-84 c30 -46 54 -86 54 -89 0 -3 -9 -5 -19 -5 -13 0 -36 27 -73 87 -30 48 -59
88 -66 91 -9 3 -12 -21 -12 -87 0 -74 -3 -91 -15 -91 -13 0 -15 29 -15 201 l0
202 69 -7 c38 -3 77 -9 86 -12z m405 -162 c39 -95 66 -148 71 -140 7 13 103
242 120 287 5 13 12 22 14 19 2 -2 13 -85 25 -183 11 -99 23 -190 25 -202 4
-18 1 -23 -14 -23 -16 0 -20 12 -31 103 -23 202 -17 199 -84 38 -32 -78 -61
-139 -64 -136 -4 3 -32 70 -64 148 -32 78 -58 138 -58 132 0 -5 -7 -64 -15
-130 -8 -65 -15 -125 -15 -132 0 -7 -9 -13 -20 -13 -16 0 -19 5 -16 23 3 12
12 85 21 162 21 188 26 218 34 208 4 -4 36 -77 71 -161z m550 146 c0 -22 -3
-23 -80 -20 l-80 4 0 -66 0 -66 80 0 c76 0 80 -1 80 -22 0 -22 -3 -23 -80 -20
l-80 4 0 -81 0 -81 80 0 c80 0 80 0 80 -26 0 -26 -1 -27 -52 -20 -29 3 -74 6
-100 6 l-48 0 0 205 0 205 100 0 c97 0 100 -1 100 -22z m224 -151 c59 -81 109
-147 110 -147 0 0 1 71 1 157 0 142 2 158 18 161 16 3 17 -12 17 -214 l0 -218
-117 157 -118 158 -3 -151 c-2 -142 -4 -150 -22 -150 -19 0 -20 7 -20 213 1
168 3 209 13 196 7 -8 61 -81 121 -162z m-2159 -1437 c3 -30 9 -63 12 -74 3
-12 1 -16 -6 -12 -6 4 -11 16 -11 27 0 10 -7 19 -15 19 -10 0 -15 -10 -15 -27
0 -14 -3 -24 -6 -20 -4 3 -1 43 6 88 14 88 24 88 35 -1z m161 -2 l19 -63 6 65
6 65 1 -87 c1 -49 0 -88 -2 -88 -2 0 -14 29 -26 65 -12 36 -23 65 -24 65 -1 0
0 -27 2 -60 3 -40 1 -60 -7 -60 -7 0 -11 28 -11 80 0 44 4 80 8 80 5 0 17 -28
28 -62z m209 -33 c0 -80 0 -80 -27 -83 l-28 -3 0 86 0 86 28 -3 c27 -3 27 -3
27 -83z m197 39 c8 -17 7 -31 -1 -52 -9 -21 -9 -36 -1 -57 6 -15 8 -30 6 -33
-3 -3 -10 8 -16 24 -21 57 -24 60 -28 22 -2 -21 -7 -38 -13 -38 -9 0 -13 153
-3 162 11 12 46 -6 56 -28z m171 9 c-19 -4 -23 -11 -23 -44 0 -30 4 -39 18
-40 16 -1 16 -2 0 -6 -12 -3 -18 -14 -18 -33 0 -24 5 -29 28 -33 25 -4 25 -4
-5 -6 l-33 -1 0 85 0 85 28 -1 c23 -2 24 -2 5 -6z m186 -117 c2 33 14 37 27 7
12 -28 12 -27 14 17 1 25 6 54 11 65 9 21 4 -70 -8 -130 l-6 -30 -12 35 -13
35 -7 -27 c-9 -34 -25 -37 -25 -4 0 12 -2 52 -4 87 l-5 64 13 -70 c8 -38 14
-61 15 -49z m439 67 c-25 -4 -28 -8 -28 -44 0 -33 3 -39 23 -40 l22 -2 -22 -4
c-17 -3 -23 -13 -26 -41 -2 -20 -4 2 -5 51 l-2 87 33 -1 c30 -2 30 -2 5 -6z
m195 -10 c-8 -3 -13 -23 -13 -49 0 -35 4 -44 18 -45 16 -1 16 -2 0 -6 -12 -3
-18 -14 -18 -33 0 -23 5 -29 28 -33 20 -4 18 -4 -8 -3 l-35 1 -3 88 c-3 85 -2
87 20 86 13 0 17 -3 11 -6z m235 -25 c15 -15 16 -70 2 -84 -7 -7 -7 -21 1 -43
6 -17 9 -34 6 -37 -3 -3 -10 11 -17 30 -15 48 -38 47 -43 -1 -2 -21 -4 4 -5
55 -2 90 -1 92 21 92 13 0 28 -5 35 -12z m200 -15 c-25 -4 -28 -8 -28 -44 0
-33 3 -39 23 -40 l22 -2 -22 -4 c-19 -4 -23 -11 -23 -39 0 -19 -3 -34 -7 -34
-5 0 -7 38 -5 85 l3 85 32 -1 c30 -2 31 -2 5 -6z m225 -25 c19 -34 16 -148 -4
-161 -9 -6 -24 -7 -33 -4 -13 5 -16 22 -16 97 0 83 2 90 20 90 11 0 25 -10 33
-22z m212 -5 c-29 -4 -30 -6 -27 -48 3 -35 8 -45 25 -48 20 -4 19 -4 -3 -6
-21 -1 -25 -6 -25 -31 0 -24 4 -30 22 -30 12 0 24 -4 27 -8 2 -4 -11 -6 -30
-4 l-34 4 0 89 0 89 38 -2 c33 -1 34 -2 7 -5z m223 -20 c-28 -4 -28 -5 -28
-83 0 -78 0 -79 28 -83 25 -4 25 -4 -5 -6 l-33 -1 0 90 0 90 33 -1 c30 -2 30
-2 5 -6z m12 -99 c0 -2 -7 -4 -15 -4 -8 0 -15 4 -15 10 0 5 7 7 15 4 8 -4 15
-8 15 -10z m-657 -21 c-7 -2 -19 -2 -25 0 -7 3 -2 5 12 5 14 0 19 -2 13 -5z
m-1846 -79 c-3 -3 -12 -4 -19 -1 -8 3 -5 6 6 6 11 1 17 -2 13 -5z m311 -51
c-1 -45 -2 -49 -5 -20 -4 33 -7 38 -24 34 -10 -3 -17 -1 -13 4 3 5 12 9 20 9
8 0 14 7 14 15 0 8 2 15 5 15 3 0 4 -26 3 -57z m-275 32 c-3 -9 -8 -14 -10
-11 -3 3 -2 9 2 15 9 16 15 13 8 -4z m92 -65 c9 0 15 14 18 38 l4 37 1 -43 c2
-40 0 -43 -20 -40 -19 2 -23 10 -24 38 -1 35 -1 35 3 3 3 -20 10 -33 18 -33z
m78 63 c-7 -2 -14 -21 -14 -41 -2 -32 -3 -33 -6 -9 -5 35 2 57 19 56 10 0 10
-2 1 -6z m411 -1 c-6 -4 -12 -29 -13 -56 -2 -62 -8 -70 -13 -17 -4 47 6 81 24
81 9 0 10 -3 2 -8z m-387 -64 c-2 -13 -4 -5 -4 17 -1 22 1 32 4 23 2 -10 2
-28 0 -40z m127 37 c-4 -10 0 -15 11 -15 11 0 15 5 11 16 -3 8 -2 12 4 9 20
-12 10 -35 -15 -35 -24 0 -34 18 -18 33 10 11 13 8 7 -8z m342 -24 c12 10 13
9 8 -5 -3 -9 -10 -16 -14 -16 -5 0 -11 -12 -13 -27 -2 -16 -4 -1 -4 32 0 33 2
47 4 32 4 -23 7 -26 19 -16z m-269 -23 c-2 -13 -4 -5 -4 17 -1 22 1 32 4 23 2
-10 2 -28 0 -40z m121 40 c7 -7 12 -16 12 -22 0 -5 -6 -2 -13 9 -9 11 -19 15
-27 10 -9 -5 -11 -4 -6 3 9 15 19 15 34 0z m-514 -14 c3 -8 2 -12 -4 -9 -6 3
-10 10 -10 16 0 14 7 11 14 -7z m249 -36 c9 -6 9 -8 0 -8 -14 0 -33 32 -32 52
0 7 5 2 10 -12 6 -13 15 -28 22 -32z m-213 32 c0 -5 -5 -10 -11 -10 -5 0 -7 5
-4 10 3 6 8 10 11 10 2 0 4 -4 4 -10z m457 -47 c8 -3 19 0 24 8 6 10 9 11 9 1
0 -19 -28 -26 -45 -12 -8 7 -14 22 -14 34 2 19 2 19 6 -2 3 -13 11 -26 20 -29z
m277 31 c3 -9 5 -28 5 -42 -1 -23 -3 -21 -8 8 -9 51 -38 53 -44 3 l-4 -38 -1
43 c-2 38 0 42 22 42 13 0 27 -7 30 -16z m92 -21 c4 -13 4 -27 0 -30 -3 -4 -6
3 -6 13 0 30 -20 46 -39 31 -14 -10 -14 -10 -3 5 17 22 40 13 48 -19z m-522
-12 c-5 -6 -34 20 -34 30 0 5 8 1 18 -8 10 -10 17 -20 16 -22z m553 7 c-3 -8
-6 -5 -6 6 -1 11 2 17 5 13 3 -3 4 -12 1 -19z m52 -18 c0 -10 -3 -8 -9 5 -5
12 -9 14 -9 6 -1 -8 -3 -12 -6 -9 -3 3 -2 13 1 22 5 14 9 15 15 4 5 -7 8 -20
8 -28z m-249 -14 c0 -12 -5 -7 -19 24 -11 24 -11 24 3 6 9 -11 16 -24 16 -30z
m373 37 c-24 -5 -32 -22 -10 -24 10 0 10 -2 0 -6 -21 -8 -15 -33 10 -43 13 -5
16 -9 7 -9 -23 -1 -40 20 -40 49 0 32 7 40 34 39 19 -2 19 -2 -1 -6z m350 0
c-7 -2 -19 -2 -25 0 -7 3 -2 5 12 5 14 0 19 -2 13 -5z m-243 -18 c0 -8 -2 -15
-4 -15 -2 0 -6 7 -10 15 -3 8 -1 15 4 15 6 0 10 -7 10 -15z m74 9 c9 -3 16
-13 16 -22 0 -13 -2 -13 -13 3 -17 23 -37 12 -37 -21 0 -28 28 -44 41 -23 7
11 9 11 9 -3 0 -21 -30 -24 -48 -6 -7 7 -12 21 -12 33 0 12 5 26 12 33 14 14
12 14 32 6z m-157 -26 c-3 -8 -6 -5 -6 6 -1 11 2 17 5 13 3 -3 4 -12 1 -19z
m251 10 c20 -20 14 -38 -13 -38 -31 0 -32 -14 -3 -34 12 -9 17 -16 11 -16 -19
0 -43 30 -43 54 0 21 16 46 30 46 3 0 11 -5 18 -12z m291 -38 c0 -9 -4 -8 -9
5 -7 15 -9 8 -11 -30 -1 -34 -3 -41 -6 -21 -3 16 -1 45 2 65 6 31 9 33 15 16
5 -11 9 -27 9 -35z m-719 19 c0 -5 -4 -9 -10 -9 -5 0 -10 7 -10 16 0 8 5 12
10 9 6 -3 10 -10 10 -16z m46 -5 c-4 -9 -9 -15 -11 -12 -3 3 -3 13 1 22 4 9 9
15 11 12 3 -3 3 -13 -1 -22z m161 -6 c-3 -7 -5 -2 -5 12 0 14 2 19 5 13 2 -7
2 -19 0 -25z m569 6 c-4 -9 -9 -15 -11 -12 -3 3 -3 13 1 22 4 9 9 15 11 12 3
-3 3 -13 -1 -22z m-865 -1 c13 -16 12 -17 -3 -4 -10 7 -18 15 -18 17 0 8 8 3
21 -13z m689 -2 c5 -11 10 -26 9 -33 0 -7 -5 -1 -10 14 -6 15 -20 29 -32 31
l-22 4 22 2 c13 0 27 -7 33 -18z m-97 2 c-7 -2 -19 -2 -25 0 -7 3 -2 5 12 5
14 0 19 -2 13 -5z m151 -8 c-4 -8 -8 -15 -10 -15 -2 0 -4 7 -4 15 0 8 4 15 10
15 5 0 7 -7 4 -15z m-397 -17 c-3 -8 -6 -5 -6 6 -1 11 2 17 5 13 3 -3 4 -12 1
-19z m321 -32 c16 0 20 -2 12 -10 -17 -17 -45 7 -47 40 l-2 29 8 -30 c5 -23
12 -30 29 -29z m248 29 c-4 -11 3 -15 27 -17 l32 -1 -33 -4 c-28 -4 -32 -7
-27 -26 5 -20 5 -20 -5 -4 -11 18 -6 67 6 67 3 0 4 -7 0 -15z m101 3 c-9 -7
-18 -29 -20 -48 -4 -34 -4 -34 -5 7 -2 39 5 50 32 52 6 1 2 -5 -7 -11z m-692
-16 c-3 -3 -11 0 -18 7 -9 10 -8 11 6 5 10 -3 15 -9 12 -12z m722 -44 c-2 -13
-4 -3 -4 22 0 25 2 35 4 23 2 -13 2 -33 0 -45z m128 44 c-3 -3 -11 0 -18 7 -9
10 -8 11 6 5 10 -3 15 -9 12 -12z m-438 -24 c-3 -7 -5 -2 -5 12 0 14 2 19 5
13 2 -7 2 -19 0 -25z m395 -3 c-4 -29 0 -36 19 -44 14 -6 18 -10 9 -10 -23 -1
-40 20 -40 49 0 22 7 40 15 40 0 0 -1 -16 -3 -35z m126 23 c24 -24 9 -88 -22
-88 -5 0 -2 6 8 13 25 18 18 72 -9 72 -14 0 -22 -9 -26 -30 -6 -28 -7 -28 -8
-4 -1 26 15 49 34 49 6 0 16 -5 23 -12z m-381 -35 c-3 -10 -5 -4 -5 12 0 17 2
24 5 18 2 -7 2 -21 0 -30z m467 28 c3 -5 15 -7 27 -4 27 7 39 -12 37 -57 l-1
-35 -6 40 c-4 27 -12 41 -23 43 -15 3 -18 -4 -19 -35 l-2 -38 -6 40 c-4 26
-11 40 -21 40 -10 0 -17 -14 -21 -40 l-6 -40 -2 42 c-1 37 6 49 31 52 4 1 9
-3 12 -8z m-911 -22 c-6 -6 -19 -9 -29 -6 -16 4 -15 5 4 6 12 0 22 6 22 13 0
6 3 8 7 5 4 -4 2 -12 -4 -18z m399 -1 c-7 -7 -12 -8 -12 -2 0 14 12 26 19 19
2 -3 -1 -11 -7 -17z m125 -24 c-3 -3 -12 -4 -19 -1 -8 3 -5 6 6 6 11 1 17 -2
13 -5z"/>
<path d="M5372 7138 c-17 -17 -15 -57 3 -64 23 -9 46 16 43 45 -3 29 -27 38
-46 19z"/>
<path d="M5064 7086 c-8 -21 -1 -59 12 -63 18 -6 45 27 42 51 -4 25 -45 35
-54 12z"/>
<path d="M4761 7036 c-20 -24 -9 -51 19 -51 21 0 25 5 25 30 0 34 -24 45 -44
21z"/>
<path d="M4385 6979 c-10 -15 -2 -19 23 -12 12 3 19 9 16 14 -7 12 -31 11 -39
-2z"/>
<path d="M3950 6905 c-17 -21 -8 -50 17 -53 17 -3 24 3 29 22 10 42 -19 63
-46 31z"/>
<path d="M3847 6893 c-14 -13 -6 -20 18 -15 14 2 25 8 25 13 0 10 -34 12 -43
2z"/>
<path d="M5392 6832 c-27 -27 -19 -62 14 -62 30 0 44 44 21 67 -13 14 -17 13
-35 -5z"/>
<path d="M5090 6780 c0 -43 3 -50 20 -50 11 0 27 11 36 25 23 35 6 75 -31 75
-23 0 -25 -3 -25 -50z"/>
<path d="M5270 6815 c-12 -15 -11 -16 16 -13 16 1 28 8 27 13 -3 17 -29 17
-43 0z"/>
<path d="M3355 6810 c-4 -6 5 -10 19 -10 14 0 26 5 26 10 0 6 -9 10 -19 10
-11 0 -23 -4 -26 -10z"/>
<path d="M3050 6779 c0 -24 23 -21 28 4 2 10 -3 17 -12 17 -10 0 -16 -9 -16
-21z"/>
<path d="M3186 6785 c-20 -20 -20 -39 -2 -54 11 -9 18 -8 30 4 20 20 20 39 2
54 -11 9 -18 8 -30 -4z"/>
<path d="M2920 6740 c0 -19 3 -21 12 -12 9 9 9 15 0 24 -9 9 -12 7 -12 -12z"/>
<path d="M4777 6743 c-4 -3 -7 -19 -7 -35 0 -21 5 -28 20 -28 23 0 43 32 34
54 -6 16 -35 22 -47 9z"/>
<path d="M4446 6724 c-20 -20 -21 -68 -1 -84 22 -18 61 1 69 34 13 53 -32 86
-68 50z"/>
<path d="M4185 6654 c-17 -18 -19 -33 -5 -54 13 -21 44 -1 48 32 4 31 -21 44
-43 22z"/>
<path d="M3929 6606 c-9 -20 -9 -29 1 -40 19 -24 52 -2 48 32 -4 36 -34 41
-49 8z"/>
<path d="M3650 6574 c-10 -12 -8 -14 14 -14 28 0 35 14 12 23 -8 3 -20 -1 -26
-9z"/>
<path d="M3344 6526 c-10 -26 0 -51 21 -51 16 0 20 7 20 30 0 33 -30 49 -41
21z"/>
<path d="M3147 6503 c-14 -13 -6 -20 18 -15 14 2 22 8 19 13 -6 11 -28 12 -37
2z"/>
<path d="M3014 6464 c-8 -30 6 -47 29 -38 11 4 17 17 17 35 0 39 -37 41 -46 3z"/>
<path d="M4979 3736 c-48 -33 -79 -98 -79 -164 0 -67 18 -109 64 -150 31 -27
44 -32 89 -32 100 0 161 70 162 185 0 109 -53 175 -149 182 -42 4 -57 0 -87
-21z"/>
<path d="M4489 3727 c-18 -12 -44 -40 -57 -62 -19 -34 -22 -52 -20 -111 3 -60
8 -77 32 -108 71 -94 193 -81 247 26 28 55 24 163 -7 205 -54 72 -132 92 -195
50z"/>
<path d="M4090 3665 l0 -65 38 0 c47 0 72 24 72 68 0 42 -23 62 -71 62 l-39 0
0 -65z"/>
<path d="M4090 3470 l0 -80 45 0 c35 0 52 6 70 25 56 55 15 135 -70 135 l-45
0 0 -80z"/>
<path d="M3448 3590 l-26 -70 54 0 c30 0 54 2 54 4 0 8 -44 121 -49 128 -4 4
-18 -24 -33 -62z"/>
<path d="M2830 3635 l0 -65 49 0 c59 0 81 18 81 65 0 47 -22 65 -81 65 l-49 0
0 -65z"/>
<path d="M3431 2992 c-87 -47 -104 -193 -33 -273 21 -24 38 -32 72 -36 85 -8
140 54 140 159 0 120 -93 198 -179 150z"/>
<path d="M3774 2991 c-2 -2 -4 -33 -4 -68 l0 -63 44 0 c70 0 109 48 83 100
-10 21 -22 26 -65 30 -29 3 -55 4 -58 1z"/>
<path d="M2890 1420 c0 -16 4 -30 8 -30 5 0 7 14 4 30 -2 17 -6 30 -8 30 -2 0
-4 -13 -4 -30z"/>
<path d="M3242 1388 c2 -57 6 -73 18 -73 12 0 15 14 15 70 0 59 -3 70 -18 73
-16 3 -18 -4 -15 -70z"/>
<path d="M3440 1405 c0 -24 5 -35 15 -35 10 0 15 11 15 35 0 24 -5 35 -15 35
-10 0 -15 -11 -15 -35z"/>
<path d="M4660 1309 c0 -36 2 -40 23 -37 39 5 31 78 -9 78 -10 0 -14 -13 -14
-41z"/>
<path d="M5090 1281 c0 -25 4 -31 21 -31 16 0 20 5 17 27 -2 17 -10 29 -20 31
-14 3 -18 -3 -18 -27z"/>
<path d="M5096 1233 c-3 -3 -6 -22 -6 -40 0 -30 3 -34 23 -31 30 4 37 52 9 67
-11 6 -22 7 -26 4z"/>
<path d="M4427 944 c-13 -13 -7 -24 14 -24 11 0 19 5 17 12 -5 14 -22 21 -31
12z"/>
<path d="M6655 7951 c-88 -17 -133 -30 -121 -34 10 -4 23 -4 28 0 6 3 8 1 4
-5 -5 -9 55 -36 167 -75 16 -6 17 -37 17 -459 0 -249 9 -1882 20 -3628 11
-1746 20 -3230 20 -3296 l0 -122 -47 -7 c-43 -6 -198 -47 -233 -62 -16 -6 256
-42 332 -42 39 -1 50 3 63 23 15 22 14 370 -8 3857 l-24 3833 -27 23 c-32 27
-16 28 -191 -6z m175 -11 c11 -17 10 -410 -1 -407 -4 1 -8 -2 -9 -8 -1 -5 -8
-17 -16 -26 -11 -12 -11 -18 -1 -29 10 -12 9 -12 -6 -1 -15 12 -16 16 -3 30 7
9 12 24 11 33 -2 10 2 16 7 15 6 -1 13 13 15 32 3 25 1 31 -9 26 -10 -6 -11
-5 0 6 6 7 12 28 12 47 0 24 -3 31 -12 26 -10 -6 -10 -5 -1 7 20 25 14 129 -9
162 -25 36 -36 28 -12 -9 16 -24 28 -115 14 -111 -3 1 -5 -2 -5 -8 0 -5 4 -9
10 -7 5 2 3 -5 -6 -15 -14 -16 -15 -24 -10 -50 1 -5 6 -1 11 7 8 12 10 11 7
-5 -1 -11 -7 -27 -12 -35 -13 -20 -13 -32 -1 -50 8 -12 8 -13 -4 -2 -14 12
-23 63 -11 59 3 -1 6 3 6 8 0 6 -2 9 -5 8 -3 -1 -5 25 -6 58 0 33 3 54 8 47 9
-15 9 -14 12 25 1 16 -2 31 -6 33 -7 5 -12 -9 -10 -27 1 -3 -6 -6 -14 -6 -10
0 -11 4 -4 11 14 14 13 29 -2 20 -7 -4 -10 -3 -5 1 9 10 -32 57 -44 49 -4 -2
-4 8 0 23 8 31 4 63 -8 63 -4 0 -7 -16 -6 -35 3 -35 -8 -54 -19 -36 -4 5 -2
12 4 16 5 3 10 11 10 17 0 7 -4 7 -13 -1 -8 -6 -18 -7 -22 -3 -5 4 -5 -2 -1
-13 5 -14 -1 -11 -18 10 -22 26 -39 25 -18 -1 4 -5 0 -1 -10 8 -18 20 -33 24
-22 6 4 -7 3 -8 -5 -4 -6 4 -9 12 -6 17 8 12 39 6 59 -10 19 -16 22 -1 4 17
-9 9 -9 12 -1 12 7 0 15 -9 18 -20 4 -11 11 -18 16 -14 6 3 5 12 -3 22 -8 10
-9 13 -1 9 6 -4 15 -2 18 4 4 5 13 8 21 5 7 -3 16 -2 18 3 9 14 86 6 96 -9z
m-44 -404 c-1 -14 -4 -28 -7 -31 -3 -3 -5 7 -4 22 1 16 -3 35 -9 43 -9 13 -9
13 5 3 9 -7 15 -24 15 -37z m54 -40 c0 -2 -7 -7 -16 -10 -8 -3 -12 -2 -9 4 6
10 25 14 25 6z m-4 -50 c0 -19 -3 -33 -7 -31 -7 5 -4 65 4 65 1 0 3 -15 3 -34z
m-7 -50 c9 -11 9 -16 -1 -22 -7 -4 -10 -4 -6 1 4 4 3 14 -3 22 -6 7 -9 13 -6
13 2 0 10 -6 16 -14z m-22 -41 c0 -8 -4 -12 -9 -9 -5 3 -6 10 -3 15 9 13 12
11 12 -6z m31 -20 c-3 -3 -9 2 -12 12 -6 14 -5 15 5 6 7 -7 10 -15 7 -18z m-7
-22 c13 -16 12 -17 -3 -4 -10 7 -18 15 -18 17 0 8 8 3 21 -13z"/>
<path d="M6737 7943 c-2 -5 -5 -24 -5 -44 -1 -26 5 -42 24 -60 38 -36 59 -34
33 3 -16 22 -19 32 -10 41 6 6 11 16 11 22 0 5 -7 2 -14 -8 -14 -17 -15 -17
-22 5 -4 13 -7 29 -6 36 3 13 -4 16 -11 5z m34 -98 c7 -13 3 -12 -10 5 -11 14
-21 30 -21 35 0 11 14 -7 31 -40z"/>
<path d="M6757 7937 c-7 -19 8 -43 17 -28 4 6 4 17 0 24 -5 9 -4 9 6 0 7 -7
14 -21 15 -31 0 -10 8 -29 18 -42 16 -23 16 -23 15 22 0 25 -5 52 -10 59 -7
10 -8 5 -4 -16 5 -30 5 -30 -7 -5 -13 28 -42 38 -50 17z"/>
</g>
</svg>
